<mxfile host="app.diagrams.net" agent="Mozilla/5.0 (Windows NT 10.0; Win64; x64) AppleWebKit/537.36 (KHTML, like Gecko) Chrome/134.0.0.0 Safari/537.36" version="26.1.3">
  <diagram name="Страница — 1" id="iiHGs8mH1VzR_LiPi1y2">
    <mxGraphModel grid="1" page="1" gridSize="10" guides="1" tooltips="1" connect="1" arrows="1" fold="1" pageScale="1" pageWidth="827" pageHeight="1169" math="0" shadow="0">
      <root>
        <mxCell id="0" />
        <mxCell id="1" parent="0" />
        <mxCell id="DWfPHJhzUaxJuypeoU2R-1" value="" style="ellipse;html=1;shape=startState;fillColor=#000000;strokeColor=#ff0000;" vertex="1" parent="1">
          <mxGeometry x="85" y="30" width="30" height="30" as="geometry" />
        </mxCell>
        <mxCell id="DWfPHJhzUaxJuypeoU2R-2" value="" style="edgeStyle=orthogonalEdgeStyle;html=1;verticalAlign=bottom;endArrow=open;endSize=8;strokeColor=#ff0000;rounded=0;entryX=0.5;entryY=0;entryDx=0;entryDy=0;" edge="1" parent="1" source="DWfPHJhzUaxJuypeoU2R-1" target="DWfPHJhzUaxJuypeoU2R-15">
          <mxGeometry relative="1" as="geometry">
            <mxPoint x="265" y="130" as="targetPoint" />
          </mxGeometry>
        </mxCell>
        <mxCell id="DWfPHJhzUaxJuypeoU2R-3" value="" style="ellipse;html=1;shape=endState;fillColor=#000000;strokeColor=#ff0000;" vertex="1" parent="1">
          <mxGeometry x="190" y="245" width="30" height="30" as="geometry" />
        </mxCell>
        <mxCell id="DWfPHJhzUaxJuypeoU2R-6" style="edgeStyle=orthogonalEdgeStyle;rounded=0;orthogonalLoop=1;jettySize=auto;html=1;exitX=1;exitY=0.5;exitDx=0;exitDy=0;entryX=0;entryY=0.5;entryDx=0;entryDy=0;" edge="1" parent="1" source="DWfPHJhzUaxJuypeoU2R-4" target="DWfPHJhzUaxJuypeoU2R-5">
          <mxGeometry relative="1" as="geometry" />
        </mxCell>
        <mxCell id="DWfPHJhzUaxJuypeoU2R-7" value="Введен корректный&lt;div&gt;email&lt;/div&gt;" style="edgeLabel;html=1;align=center;verticalAlign=middle;resizable=0;points=[];" connectable="0" vertex="1" parent="DWfPHJhzUaxJuypeoU2R-6">
          <mxGeometry x="-0.1938" y="3" relative="1" as="geometry">
            <mxPoint x="9" y="-17" as="offset" />
          </mxGeometry>
        </mxCell>
        <mxCell id="DWfPHJhzUaxJuypeoU2R-56" style="edgeStyle=orthogonalEdgeStyle;rounded=0;orthogonalLoop=1;jettySize=auto;html=1;exitX=0;exitY=0.25;exitDx=0;exitDy=0;entryX=0;entryY=0.5;entryDx=0;entryDy=0;" edge="1" parent="1" source="DWfPHJhzUaxJuypeoU2R-4" target="DWfPHJhzUaxJuypeoU2R-55">
          <mxGeometry relative="1" as="geometry" />
        </mxCell>
        <mxCell id="DWfPHJhzUaxJuypeoU2R-4" value="Ожидание ввода email" style="rounded=1;whiteSpace=wrap;html=1;" vertex="1" parent="1">
          <mxGeometry x="295" y="130" width="120" height="60" as="geometry" />
        </mxCell>
        <mxCell id="DWfPHJhzUaxJuypeoU2R-9" style="edgeStyle=orthogonalEdgeStyle;rounded=0;orthogonalLoop=1;jettySize=auto;html=1;exitX=0.5;exitY=1;exitDx=0;exitDy=0;" edge="1" parent="1" source="DWfPHJhzUaxJuypeoU2R-5">
          <mxGeometry relative="1" as="geometry">
            <mxPoint x="590" y="230" as="targetPoint" />
            <Array as="points">
              <mxPoint x="590" y="230" />
              <mxPoint x="590" y="230" />
            </Array>
          </mxGeometry>
        </mxCell>
        <mxCell id="DWfPHJhzUaxJuypeoU2R-31" value="Код введен" style="edgeLabel;html=1;align=center;verticalAlign=middle;resizable=0;points=[];" connectable="0" vertex="1" parent="DWfPHJhzUaxJuypeoU2R-9">
          <mxGeometry x="-0.2333" relative="1" as="geometry">
            <mxPoint as="offset" />
          </mxGeometry>
        </mxCell>
        <mxCell id="DWfPHJhzUaxJuypeoU2R-5" value="Ожидание ввода кода" style="rounded=1;whiteSpace=wrap;html=1;" vertex="1" parent="1">
          <mxGeometry x="530" y="130" width="120" height="60" as="geometry" />
        </mxCell>
        <mxCell id="DWfPHJhzUaxJuypeoU2R-46" style="edgeStyle=orthogonalEdgeStyle;rounded=0;orthogonalLoop=1;jettySize=auto;html=1;exitX=0.5;exitY=0;exitDx=0;exitDy=0;entryX=0.5;entryY=1;entryDx=0;entryDy=0;" edge="1" parent="1" source="DWfPHJhzUaxJuypeoU2R-8" target="DWfPHJhzUaxJuypeoU2R-17">
          <mxGeometry relative="1" as="geometry" />
        </mxCell>
        <mxCell id="DWfPHJhzUaxJuypeoU2R-47" value="Данные сохранены" style="edgeLabel;html=1;align=center;verticalAlign=middle;resizable=0;points=[];" connectable="0" vertex="1" parent="DWfPHJhzUaxJuypeoU2R-46">
          <mxGeometry x="0.0619" y="-1" relative="1" as="geometry">
            <mxPoint as="offset" />
          </mxGeometry>
        </mxCell>
        <mxCell id="DWfPHJhzUaxJuypeoU2R-8" value="Ожидание ввода имени и фамилии" style="rounded=1;whiteSpace=wrap;html=1;" vertex="1" parent="1">
          <mxGeometry x="295" y="360" width="120" height="60" as="geometry" />
        </mxCell>
        <mxCell id="DWfPHJhzUaxJuypeoU2R-12" value="Введен &lt;br&gt;некорректный&lt;div&gt;email&lt;/div&gt;" style="edgeLabel;html=1;align=center;verticalAlign=middle;resizable=0;points=[];" connectable="0" vertex="1" parent="1">
          <mxGeometry x="270" y="100" as="geometry" />
        </mxCell>
        <mxCell id="DWfPHJhzUaxJuypeoU2R-16" style="edgeStyle=orthogonalEdgeStyle;rounded=0;orthogonalLoop=1;jettySize=auto;html=1;exitX=1;exitY=0.5;exitDx=0;exitDy=0;entryX=0;entryY=0.5;entryDx=0;entryDy=0;" edge="1" parent="1" source="DWfPHJhzUaxJuypeoU2R-15" target="DWfPHJhzUaxJuypeoU2R-4">
          <mxGeometry relative="1" as="geometry">
            <mxPoint x="250" y="160" as="sourcePoint" />
          </mxGeometry>
        </mxCell>
        <mxCell id="DWfPHJhzUaxJuypeoU2R-15" value="Пользователь не авторизован" style="rounded=1;whiteSpace=wrap;html=1;" vertex="1" parent="1">
          <mxGeometry x="40" y="130" width="120" height="60" as="geometry" />
        </mxCell>
        <mxCell id="DWfPHJhzUaxJuypeoU2R-48" style="edgeStyle=orthogonalEdgeStyle;rounded=0;orthogonalLoop=1;jettySize=auto;html=1;exitX=0;exitY=0.5;exitDx=0;exitDy=0;entryX=1;entryY=0.5;entryDx=0;entryDy=0;" edge="1" parent="1" source="DWfPHJhzUaxJuypeoU2R-17" target="DWfPHJhzUaxJuypeoU2R-3">
          <mxGeometry relative="1" as="geometry" />
        </mxCell>
        <mxCell id="DWfPHJhzUaxJuypeoU2R-17" value="Пользователь авторизован" style="rounded=1;whiteSpace=wrap;html=1;" vertex="1" parent="1">
          <mxGeometry x="295" y="230" width="120" height="60" as="geometry" />
        </mxCell>
        <mxCell id="DWfPHJhzUaxJuypeoU2R-29" value="Пользователь начал&lt;div&gt;авторизацию&lt;/div&gt;" style="edgeLabel;html=1;align=center;verticalAlign=middle;resizable=0;points=[];" connectable="0" vertex="1" parent="1">
          <mxGeometry x="220" y="180" as="geometry" />
        </mxCell>
        <mxCell id="DWfPHJhzUaxJuypeoU2R-35" style="edgeStyle=orthogonalEdgeStyle;rounded=0;orthogonalLoop=1;jettySize=auto;html=1;exitX=1;exitY=0.5;exitDx=0;exitDy=0;entryX=1;entryY=0.5;entryDx=0;entryDy=0;" edge="1" parent="1" source="DWfPHJhzUaxJuypeoU2R-30" target="DWfPHJhzUaxJuypeoU2R-17">
          <mxGeometry relative="1" as="geometry" />
        </mxCell>
        <mxCell id="DWfPHJhzUaxJuypeoU2R-36" value="[код верный&amp;nbsp;&lt;div&gt;и email существует]&lt;/div&gt;" style="edgeLabel;html=1;align=center;verticalAlign=middle;resizable=0;points=[];" connectable="0" vertex="1" parent="DWfPHJhzUaxJuypeoU2R-35">
          <mxGeometry x="0.1222" relative="1" as="geometry">
            <mxPoint x="8" y="-20" as="offset" />
          </mxGeometry>
        </mxCell>
        <mxCell id="DWfPHJhzUaxJuypeoU2R-37" style="edgeStyle=orthogonalEdgeStyle;rounded=0;orthogonalLoop=1;jettySize=auto;html=1;exitX=0;exitY=0.5;exitDx=0;exitDy=0;entryX=1;entryY=0.5;entryDx=0;entryDy=0;" edge="1" parent="1" source="DWfPHJhzUaxJuypeoU2R-30" target="DWfPHJhzUaxJuypeoU2R-5">
          <mxGeometry relative="1" as="geometry" />
        </mxCell>
        <mxCell id="DWfPHJhzUaxJuypeoU2R-42" style="edgeStyle=orthogonalEdgeStyle;rounded=0;orthogonalLoop=1;jettySize=auto;html=1;exitX=0.5;exitY=0;exitDx=0;exitDy=0;entryX=0.5;entryY=0;entryDx=0;entryDy=0;" edge="1" parent="1" source="DWfPHJhzUaxJuypeoU2R-30" target="DWfPHJhzUaxJuypeoU2R-41">
          <mxGeometry relative="1" as="geometry" />
        </mxCell>
        <mxCell id="DWfPHJhzUaxJuypeoU2R-30" value="Проверка данных" style="rounded=1;whiteSpace=wrap;html=1;direction=west;" vertex="1" parent="1">
          <mxGeometry x="530" y="230" width="120" height="60" as="geometry" />
        </mxCell>
        <mxCell id="DWfPHJhzUaxJuypeoU2R-38" value="Код неверный" style="edgeLabel;html=1;align=center;verticalAlign=middle;resizable=0;points=[];" connectable="0" vertex="1" parent="1">
          <mxGeometry x="670" y="210" as="geometry" />
        </mxCell>
        <mxCell id="DWfPHJhzUaxJuypeoU2R-44" style="edgeStyle=orthogonalEdgeStyle;rounded=0;orthogonalLoop=1;jettySize=auto;html=1;exitX=0;exitY=0.5;exitDx=0;exitDy=0;entryX=1;entryY=0.5;entryDx=0;entryDy=0;" edge="1" parent="1" source="DWfPHJhzUaxJuypeoU2R-41" target="DWfPHJhzUaxJuypeoU2R-8">
          <mxGeometry relative="1" as="geometry" />
        </mxCell>
        <mxCell id="DWfPHJhzUaxJuypeoU2R-45" value="Начата&lt;div&gt;регистрация&lt;/div&gt;" style="edgeLabel;html=1;align=center;verticalAlign=middle;resizable=0;points=[];" connectable="0" vertex="1" parent="DWfPHJhzUaxJuypeoU2R-44">
          <mxGeometry x="0.0296" y="2" relative="1" as="geometry">
            <mxPoint y="-22" as="offset" />
          </mxGeometry>
        </mxCell>
        <mxCell id="DWfPHJhzUaxJuypeoU2R-41" value="Регистрация" style="rounded=1;whiteSpace=wrap;html=1;" vertex="1" parent="1">
          <mxGeometry x="530" y="360" width="120" height="60" as="geometry" />
        </mxCell>
        <mxCell id="DWfPHJhzUaxJuypeoU2R-43" value="[код верный,&lt;div&gt;но email новый]&lt;/div&gt;" style="edgeLabel;html=1;align=center;verticalAlign=middle;resizable=0;points=[];" connectable="0" vertex="1" parent="1">
          <mxGeometry x="589.9966666666664" y="320" as="geometry">
            <mxPoint x="5" y="3" as="offset" />
          </mxGeometry>
        </mxCell>
        <mxCell id="DWfPHJhzUaxJuypeoU2R-57" style="edgeStyle=orthogonalEdgeStyle;rounded=0;orthogonalLoop=1;jettySize=auto;html=1;exitX=0.5;exitY=1;exitDx=0;exitDy=0;entryX=0.5;entryY=0;entryDx=0;entryDy=0;" edge="1" parent="1" source="DWfPHJhzUaxJuypeoU2R-55" target="DWfPHJhzUaxJuypeoU2R-4">
          <mxGeometry relative="1" as="geometry" />
        </mxCell>
        <mxCell id="DWfPHJhzUaxJuypeoU2R-58" value="Повтор ввода" style="edgeLabel;html=1;align=center;verticalAlign=middle;resizable=0;points=[];" connectable="0" vertex="1" parent="DWfPHJhzUaxJuypeoU2R-57">
          <mxGeometry x="-0.1" y="-1" relative="1" as="geometry">
            <mxPoint x="1" y="-2" as="offset" />
          </mxGeometry>
        </mxCell>
        <mxCell id="DWfPHJhzUaxJuypeoU2R-55" value="Ошибка" style="rounded=1;whiteSpace=wrap;html=1;" vertex="1" parent="1">
          <mxGeometry x="295" y="20" width="120" height="60" as="geometry" />
        </mxCell>
      </root>
    </mxGraphModel>
  </diagram>
</mxfile>
